<svg version="1.2" xmlns="http://www.w3.org/2000/svg" viewBox="0 0 1280 260" width="1280" height="260"><style>.a{opacity:.6;stroke:#fff;stroke-width:4}</style><path class="a" d="m391.1 231.3q-6 0-9.4-6.5l-93.7-180v169.1h23.4q4.2 0 6.3 2.4 1.9 2.2 1.9 5 0 2.6-2.2 5-2 2.2-6.3 2.2h-60.6q-4.2 0-6.4-2.2-2.1-2.4-2.1-5 0-2.8 2.1-5 2.1-2.4 6.2-2.4h21.4v-169.2h-26.5q-4.2 0-6.3-2.2-1.9-2.3-1.9-5 0-2.8 1.9-5 2.3-2.4 6.6-2.4h48.6q4.7 0 6.8 4l82.3 161.5v-150.9h-25.3q-4.1 0-6.2-2.2-2.1-2.3-2.1-5 0-2.8 2.2-5 2.2-2.4 6.5-2.4h57.1q4.3 0 6.2 2.4 2.3 2.2 2.3 5 0 2.7-2.1 5-2 2.2-6.1 2.2h-16.3v175.9q0 5.4-2.5 8-2.3 2.7-5.8 2.7zm138.4 0.1q-23.4 0-36.5-13-12.8-13.2-12.8-34.3v-75.3l-17.3 3.5q-5.3 1-7.7-1.5-2.3-2.8-2.3-5.4 0-5.3 6.1-6.6l29.7-5.9q4-0.9 5.8 1.2 2 1.8 2 4.3v86.2q0 14.1 8 23.6 8.2 9.3 25.2 9.3 10 0 20.4-3.7 10.4-3.8 18.8-10 8.5-6.5 12.3-14.4v-80.6l-17.5 3.6q-5 1-7.7-1.5-2.3-2.8-2.3-5.4 0-5.4 6.5-6.7l30.4-6.1q3.5-0.7 5.1 1.4 1.7 1.8 1.7 4.3v115.7l26.1-1.8q3.6 0 5.1 1.8 1.7 1.6 1.7 4.1 0 2.4-1.7 4.7-1.5 2.4-4.7 2.7l-32.7 3.5q-7.5 0-8-8.5l-0.8-14.9q-7.3 11-22.1 18.4-14.5 7.3-30.8 7.3zm284.1-2.9h-128.7q-3.8 0-5.7-2.4-2-2.5-2-5.4 0-2.9 2-5.2 1.9-2.4 5.7-2.4h128.7q3.9 0 5.7 2.4 1.9 2.3 1.9 5.2 0 2.9-1.9 5.4-1.8 2.4-5.7 2.4zm222.1 0h-135.6q-3.9 0-5.9-2.2-1.9-2.2-1.9-4.9 0-2.6 1.8-4.6 1.8-2.2 5.4-2.2h62.5v-167.3l-56.8 25.8q-1.4 0.6-2.9 0.6-3.1 0-5-2.4-2-2.5-2-5.1 0-4.3 4.2-6l68.5-30.5q1.3-0.7 3.3-0.7 2.5 0 4.7 1.9 2.2 1.7 2.2 6.2v177.5h57.6q3.5 0 5 2.2 1.7 2.3 1.7 4.8 0 2.6-1.7 4.8-1.8 2.1-5.1 2.1z"/></svg>