<svg version="1.2" xmlns="http://www.w3.org/2000/svg" viewBox="0 0 1280 260" width="1280" height="260"><defs><linearGradient id="P" gradientUnits="userSpaceOnUse"/><linearGradient id="g1" x2="1" href="#P" gradientTransform="matrix(1197.64,-163.2,38.718,284.128,41,226.082)"><stop stop-color="#866ee7"/><stop offset=".25" stop-color="#ea60da"/><stop offset=".5" stop-color="#ed8f57"/><stop offset=".75" stop-color="#fbd41d"/><stop offset="1" stop-color="#2cca91"/></linearGradient></defs><style>.a{fill:url(#g1)}</style><path class="a"  d="m480.4 30.3l22.4-13.1h6.5q7 0 14.4 10.4 0 13.1-15.8 13.1-5.9 8-9.1 8v40.6l-7.8 9.1 2.5 9.3h2.6q0-4 2.7-4l1.3 1.4-1.3 7.8 1.3 64.3-9.1 10.5 2.5 5.3q-5.2 0.8-6.5 6.6h-1.3q0-2.7-4-2.7l-6.5 3.9-15.7-43.3 2.6-2.5q0-7.2-10.6-19.8v-3.9q5.6 2.2 11.8 9.2l5.3 1.2v2.7h-2.6v1.3h5.3l5.3-2.6v-1.4l-4-1.2 1.3-3.9h1.3l1.4 1.3h1.1l9.3-18.4h-1.3l2.6-5.3v-1.3h-1.3q0 3.9-4 3.9v-1.3l4-3.8q-1.7-6.6-4-6.6h-1.3q-0.9 6.6-4 6.6l-1.1-1.3 1.1-1.4v-49.9q0-18.4-7.8-18.4v-1.3l1.4-1.2q-6.7-3.8-6.7-7.9l-3.8 2.6h-10.6l-2.5-2.6 11.8-10.5h11.8l-6.7 6.5 1.4 4h1.3q0-4 2.6-4h1.4v1.3l-1.4 1.3v1.4h2.7v-4h1.3l5.2 4zm-78.7-7.8l5.2-4h5.3l6.6 1.3 1.2-1.3q11 10.8 18.4 38 13.1 26.6 28.9 70.8l-1.4 1.3q-15.7-1.3-15.7-3.8-7.4-4.4-20.9-38.1 0-3.9-2.7-3.9l-1.3 1.2v-2.5h-5.3l-7.8 14.4v1.4l2.6 3.8v2.6h-2.6l-4-2.6h-1.3l-2.7 2.6v1.4l10.6 2.6 5.2-2.6 1.3 1.3-1.3 1.3v6.5l1.3 7.9-5.1 11.8h1.3l1.3-1.3h1.2l1.3 1.3-1.3 32.9v2.6q0 10.6 11.9 13.1 0-4 9.2-5.3 12.4 4 17 11.8-2.6 0-2.6 5.3l-1.3 1.3h-1.4l1.4 1.3v1.4l-5.3 5.1-1.2-1.3-1.4 1.3h-7.9q-7.9-8.4-14.4-9.1 0 3-6.5 4l-1.3-4h-5.3q0 4-2.7 4h-1.3l-10.5-4-19.7 11.8q-7.8-10.1-7.8-14.5 4.2-13.1 6.5-13.1l5.3 2.7q14.5-1.5 18.4-6.6h1.3v-15.8l1.3-3.8-1.3-6.6v-32.9l2.7-3.8v-1.3l-4-5.3v-7.8l1.3-4-1.3-6.6v-26.2q3.7-6.7 7.8-6.7v-1.2l-11.8-11.9-1.3 1.3h-4q-13.2 0-19.6-5.1l-2.6-2.7v-1.3l1.3 1.3h2.7q4.5-11.7 17-11.7zm60.4 0l-5.3 2.5v1.3h5.3l1.2-3.8zm64.2 3.8h1.3l1.3 1.3v1.3l-1.3 1.4h-1.3l-1.3-1.4v-1.3zm-115.5 8v1.3q2.7 5.1 6.6 5.1v2.7l-3.9 4-6.6-9.2h-1.4v2.5q2.3 0 8 9.3 3.4-0.5 5.3-6.6h3.8v-1.3q0-3.2-11.8-7.8zm40.7 140.3h1.3l1.3 1.3v1.3l-1.3 1.4h-1.3l-1.4-1.4v-1.3zm35.5 30.2l11.8-13.1 1.3 1.3v2.7l-11.7 11.7-1.4-1.3zm91.5-145.1h1.3l8.1 9.4-1.3 1.5h-1.4l-8-9.5zm-6.8 8l6.8-1.3q4.1 5.2 4.1 12.2v21.6l-1.5 4.1 1.5 6.7v8.1q0 60.9 10.7 60.9l5.4 4h6.8q14.8 0 35.2-32.5v1.5l4-1.5-1.4-22.9v-2.8l1.4-8-1.4-5.5 1.4-1.3h1.4q0-17.2-9.5-23l-6.8-1.3q0-2.2-9.4-5.5v-5.3l9.4-8.2 6.8 1.4h12.2l6.7-1.4 1.3 1.4 2.8-2.7q4 0 5.3 18.9v89.3q0 3.3 15 8l3.9 5.5v1.3q-2.7 5.4-6.7 5.4l2.8 4.1-1.3 1.3-1.5-1.3h-4v2.7q4 0 4 2.7v1.4h-2.7l-4.1-2.8-3.9 2.8-12.2-1.4-4.1 1.4v-1.4l1.3-1.4v-1.3q-4.4 0-12.2-10.9l-1.3-1.3h-1.3q-17.9 17.6-32.4 17.6h-9.6q-18 0-29.6-23l-1.4-1.4 1.4-1.3v-1.3q-5.7 0-6.8-28.5v-8q0-10.9 8.1-10.9v-2.7l-6.8-8 2.7-13.5q0-11.4-8.1-19l1.3-1.4v-1.3q-8 0-10.7-5.5-4.1 0-4.1-2.6l2.7-4.1-1.4-1.3q4.1 0 9.6-5.5zm-36.6 12.2h1.4l8.2 9.5-1.5 1.4h-1.3l-8.1-9.6zm12.2 10.9h1.3l1.5 1.3v1.3l-1.5 1.4h-1.3l-1.3-1.4v-1.3zm87.9 4l-2.8-4h2.8l2.6 2.7-1.3 1.3zm-4.1-2.7h1.3l1.5 1.4v1.3l-1.5 1.4h-1.3l-1.3-1.4v-1.3zm106.3 130.1h7.2l4.8 1.2 4.9-1.2 16.9-1.5 6.8 2.3 3.6 3.7v3.6q-2.4 12-12.1 12h-18l-8.5-1.2-10.8 1.2h-29q-12 0-12-13.2 3.5-5.1 13.2-8.5l6.6 16 3.1-0.6-1.6-13.8q16.5-0.4 24.9 0zm78.1-195.7l5.3-6.6h17q2.6 0 2.6 4h2.7l2.6-2.7q13 6.4 13 22.3 0 4.7-11.7 17.1v2.6l5.2 1.3 4-3.9h1.3l-1.3 5.1 1.3 10.6-1.3 62.8-1.4 1.3h-1.3v-4h-3.9q7.9 8.1 7.9 14.4l-1.3 1.4h-1.4l1.4 1.3v2.6q0 1.8-19.8 6.5l-1.1 1.3-1.4-1.3v-1.3l1.4-1.3-1.4-1.4v-2.5l1.4-1.3-1.4-1.3v-4q10.5-8.7 10.5-16.9-3.3 0-9.1-5.3l1.1-19.6v-13.1l-1.1-35.4 7.8-6.5h-5.3v3.9q-7.6-4.3-10.5-9.2v-1.3h1.3l6.7 5.3v-2.6l-4-4-9.2 1.3h-6.6l-1.3-1.3-1.3 1.3h-10.5q-16.9 0-16.9-11.8v-1.3l2.6-2.5-1.3-1.3 1.3-1.3h1.3l1.2 1.3q0-3.6 6.7-6.6l13.1 7.9v-5.3h2.5l1.3 1.3zm34 116.5h-1.3v3.9h5.3zm-5.2 19.6h1.4v2.6l1.3-1.3h1.2l1.3 1.3v1.3q-3.3 3.9-6.5 3.9v1.3h1.3l11.8-2.7q0 8.1 9.2 13.2h26.2l9.1-1.4q2.2 6.6 6.5 6.6-2.7 17-15.6 17l-26.2-1.3-11.8 2.6h-22.3l-10.4 2.7h-1.4q-35.3-5.9-35.3-10.5v-5.3l10.5-10.4 7.8 1.3 3.9-3.9 23.6 1.2q1.9-5.8 11.8-9.1l2.6-6.5-1.3-1.3z"/></svg>