<svg version="1.2" xmlns="http://www.w3.org/2000/svg" viewBox="0 0 650 225" width="650" height="225"><style>.a{stroke:rgba(255, 255, 255, 0.6);stroke-width:4}</style><path class="a" d="m145.8 184q-4.3 0-6.8-4.7l-67.5-129.6v121.8h16.9q3 0 4.5 1.7 1.4 1.6 1.4 3.6 0 1.9-1.6 3.6-1.4 1.6-4.5 1.6h-43.7q-3 0-4.6-1.6-1.5-1.7-1.5-3.6 0-2 1.5-3.6 1.5-1.7 4.5-1.7h15.4v-121.9h-19.1q-3 0-4.5-1.6-1.4-1.6-1.4-3.6 0-2 1.4-3.6 1.6-1.7 4.7-1.7h35q3.4 0 4.9 2.9l59.3 116.3v-108.7h-18.2q-3 0-4.5-1.6-1.5-1.6-1.5-3.6 0-2 1.6-3.6 1.6-1.7 4.7-1.7h41.1q3.1 0 4.5 1.7 1.6 1.6 1.6 3.6 0 2-1.5 3.6-1.4 1.6-4.4 1.6h-11.7v126.7q0 3.9-1.8 5.8-1.7 1.9-4.2 1.9zm99.7 0.1q-16.9 0-26.3-9.4-9.2-9.5-9.2-24.7v-54.2l-12.5 2.5q-3.8 0.7-5.5-1.1-1.7-2-1.7-3.9 0-3.8 4.4-4.7l21.4-4.3q2.9-0.6 4.2 0.9 1.4 1.3 1.4 3.1v62.1q0 10.1 5.8 17 5.9 6.7 18.1 6.7 7.2 0 14.7-2.7 7.5-2.7 13.6-7.2 6.1-4.7 8.8-10.4v-58l-12.6 2.6q-3.6 0.7-5.5-1.1-1.7-2-1.7-3.9 0-3.9 4.7-4.8l21.9-4.4q2.5-0.5 3.7 1 1.2 1.3 1.2 3.1v83.3l18.8-1.3q2.6 0 3.7 1.3 1.2 1.2 1.2 3 0 1.7-1.2 3.4-1.1 1.7-3.4 1.9l-23.6 2.5q-5.4 0-5.7-6.1l-0.6-10.7q-5.3 7.9-15.9 13.2-10.5 5.3-22.2 5.3zm204.6-2.1h-92.7q-2.7 0-4.1-1.7-1.4-1.8-1.4-3.9 0-2.1 1.4-3.8 1.4-1.7 4.1-1.7h92.7q2.8 0 4.1 1.7 1.4 1.7 1.4 3.8 0 2.1-1.4 3.9-1.3 1.7-4.1 1.7zm160 0h-97.7q-2.8 0-4.2-1.6-1.4-1.6-1.4-3.5 0-1.9 1.3-3.3 1.3-1.6 3.9-1.6h45v-120.5l-40.9 18.6q-1 0.4-2.1 0.4-2.2 0-3.6-1.7-1.4-1.8-1.4-3.7 0-3.1 3-4.3l49.3-22q1-0.5 2.4-0.5 1.8 0 3.4 1.4 1.6 1.2 1.6 4.4v127.9h41.5q2.5 0 3.6 1.6 1.2 1.6 1.2 3.4 0 1.9-1.2 3.5-1.3 1.5-3.7 1.5z"/></svg>