<svg xmlns="http://www.w3.org/2000/svg" height="20px" viewBox="0 -960 960 960" width="20px"><path d="M312-336h96q10.2 0 17.1-6.86 6.9-6.86 6.9-17T425.1-377q-6.9-7-17.1-7h-96q-10.2 0-17.1 6.86-6.9 6.86-6.9 17t6.9 17.14q6.9 7 17.1 7Zm0-120h96q10.2 0 17.1-6.86 6.9-6.86 6.9-17T425.1-497q-6.9-7-17.1-7h-96q-10.2 0-17.1 6.86-6.9 6.86-6.9 17t6.9 17.14q6.9 7 17.1 7Zm319-161.1q-7 6.9-7 17.1v144q0 10.2 6.86 17.1 6.86 6.9 17 6.9t17.14-6.9q7-6.9 7-17.1v-144q0-10.2-6.86-17.1-6.86-6.9-17-6.9T631-617.1ZM312-576h96q10.2 0 17.1-6.86 6.9-6.86 6.9-17T425.1-617q-6.9-7-17.1-7h-96q-10.2 0-17.1 6.86-6.9 6.86-6.9 17t6.9 17.14q6.9 7 17.1 7ZM168-144q-29.7 0-50.85-21.15Q96-186.3 96-216v-528q0-29.7 21.15-50.85Q138.3-816 168-816h624q29.7 0 50.85 21.15Q864-773.7 864-744v528q0 29.7-21.15 50.85Q821.7-144 792-144H168Zm0-72h624v-528H168v528Zm0 0v-528 528Zm497-126.86q7-6.86 7-17T665.14-377q-6.86-7-17-7T631-377.14q-7 6.86-7 17t6.86 17.14q6.86 7 17 7t17.14-6.86Z"/></svg>